<?xml version="1.0" encoding="UTF-8"?>
<svg version="1.1" xmlns="http://www.w3.org/2000/svg" width="500" height="85">
<path d="M0 0 C165 0 330 0 500 0 C500 28.05 500 56.1 500 85 C335 85 170 85 0 85 C0 56.95 0 28.9 0 0 Z " fill="#010101" transform="translate(0,0)"/>
<path d="M0 0 C2.81834852 1.58625634 5.07931337 3.38608541 7 6 C7 6.99 7 7.98 7 9 C7.66 9 8.32 9 9 9 C9.0928125 7.88625 9.0928125 7.88625 9.1875 6.75 C10 4 10 4 11.875 1.6875 C16.53651532 -0.82971827 20.81688766 -0.88918496 26 0 C29.94808449 1.97404224 32.32742492 4.95417649 34 9 C34.84262597 14.92026817 33.94980005 19.76648378 31 25 C28.83316345 27.82738216 26.43726999 30.40463682 24 33 C22.58871835 34.51256734 21.18023273 36.02759079 19.77539062 37.54614258 C18.82439719 38.57252352 17.86889385 39.59475053 16.90820312 40.61206055 C14.61649929 43.07399346 12.5903194 45.53363885 10.79296875 48.3671875 C10.20128906 49.23601563 9.60960937 50.10484375 9 51 C8.34 51 7.68 51 7 51 C5.6697891 49.48772933 4.40972409 47.91330976 3.1875 46.3125 C0.91041484 43.38007886 -1.30454159 40.55643764 -4 38 C-4.66 37.34 -5.32 36.68 -6 36 C-6 35.34 -6 34.68 -6 34 C-6.89332031 33.62294922 -6.89332031 33.62294922 -7.8046875 33.23828125 C-12.24594312 30.7331602 -14.86786765 25.95550133 -17.375 21.625 C-18.7342028 15.91634825 -18.93941629 10.84528199 -16.25 5.5625 C-11.37802238 0.01385883 -7.3125173 -1.41099109 0 0 Z " fill="#FB3030" transform="translate(448,12)"/>
<path d="M0 0 C3 0.5 3 0.5 5.1875 1.875 C12.35413945 12.25427092 13.89094292 33.28003556 12 45.5 C10.671875 47.7890625 10.671875 47.7890625 9 49.5 C5.9375 49.9375 5.9375 49.9375 3 49.5 C-1.06909045 43.39636432 -0.26096189 34.66770928 -0.5625 27.5 C-0.60568359 26.53449219 -0.64886719 25.56898437 -0.69335938 24.57421875 C-0.79841713 22.21625575 -0.90056914 19.85820584 -1 17.5 C-1.31453125 18.26183594 -1.6290625 19.02367188 -1.953125 19.80859375 C-9.48827292 37.98827292 -9.48827292 37.98827292 -11 39.5 C-16.41811976 39.97114085 -16.41811976 39.97114085 -18.56762695 38.23071289 C-20.07816143 36.40555882 -21.04121695 34.70282263 -22.04296875 32.55859375 C-22.39423828 31.81029297 -22.74550781 31.06199219 -23.10742188 30.29101562 C-23.46384766 29.51435547 -23.82027344 28.73769531 -24.1875 27.9375 C-24.55552734 27.15697266 -24.92355469 26.37644531 -25.30273438 25.57226562 C-28 19.7723939 -28 19.7723939 -28 17.5 C-28.66 17.5 -29.32 17.5 -30 17.5 C-30.04898437 18.48097656 -30.09796875 19.46195313 -30.1484375 20.47265625 C-30.53017729 27.585445 -31.02186333 34.67673752 -31.875 41.75 C-32.01679687 42.95140625 -32.15859375 44.1528125 -32.3046875 45.390625 C-33.01593699 48.5712688 -33.72749821 50.19391444 -36 52.5 C-38.5 53 -38.5 53 -41 52.5 C-42.8125 51.0625 -42.8125 51.0625 -44 48.5 C-44.43601448 40.76272478 -43.17240884 33.52783955 -41.75 25.9375 C-41.54503906 24.75736328 -41.34007812 23.57722656 -41.12890625 22.36132812 C-38.47159725 7.97159725 -38.47159725 7.97159725 -34 3.5 C-30.93826312 3.2500623 -29.71815606 3.21628194 -27 4.5 C-22.322056 9.55423201 -18.96766664 15.31736116 -16 21.5 C-15.74831055 21.0059668 -15.49662109 20.51193359 -15.23730469 20.00292969 C-14.08276075 17.74781225 -12.91652437 15.49894196 -11.75 13.25 C-11.35425781 12.47269531 -10.95851562 11.69539063 -10.55078125 10.89453125 C-5.33424337 0.88904056 -5.33424337 0.88904056 0 0 Z " fill="#F7F7F7" transform="translate(59,8.5)"/>
<path d="M0 0 C3.11208661 0.23899163 4.61310867 0.62517389 6.87890625 2.8203125 C7.43449219 3.58085937 7.99007813 4.34140625 8.5625 5.125 C9.15289062 5.93066406 9.74328125 6.73632812 10.3515625 7.56640625 C12.42788503 10.63168808 14.26160433 13.73181614 16 17 C16.66 17 17.32 17 18 17 C19.5802044 15.07191478 21.05112391 13.14787173 22.5 11.125 C26.81038136 5.18961864 26.81038136 5.18961864 29 3 C31.5 2.75 31.5 2.75 34 3 C34.66 3.66 35.32 4.32 36 5 C35.7859524 9.66788427 33.28228624 12.90873142 30.625 16.5625 C30.22539062 17.12646484 29.82578125 17.69042969 29.4140625 18.27148438 C27.79842087 20.54348042 26.18784099 22.78041482 24.37475586 24.89990234 C22.7343898 27.40575012 22.67170995 28.69672408 22.77734375 31.66015625 C22.80538086 32.9740332 22.80538086 32.9740332 22.83398438 34.31445312 C22.88522461 35.67473633 22.88522461 35.67473633 22.9375 37.0625 C22.99747583 38.86560305 23.04864071 40.66902657 23.08984375 42.47265625 C23.11941162 43.26937744 23.14897949 44.06609863 23.17944336 44.88696289 C23 47 23 47 21 50 C18.28931741 50.41702809 16.7034368 50.42074724 14.328125 49 C11.91211895 45.36177913 13.02471933 40.55206011 13.38085938 36.3359375 C13.48082798 34.09350449 13.49084808 32.19300939 13 30 C10.49818211 27.53038555 10.49818211 27.53038555 8.56567383 26.24755859 C5.8757396 24.104168 4.64313131 21.06096457 3.25 18 C2.95996094 17.39671875 2.66992188 16.7934375 2.37109375 16.171875 C-2.50581833 5.92813273 -2.50581833 5.92813273 -1 1 C-0.67 0.67 -0.34 0.34 0 0 Z " fill="#F8F8F8" transform="translate(261,11)"/>
<path d="M0 0 C3.78347566 1.82167346 5.52945103 2.99168078 7.3125 6.8125 C8.76214424 13.53357784 9.44781048 20.12479205 9 27 C8.67 27.33 8.34 27.66 8 28 C5.66055264 27.71269945 3.3260857 27.38063221 1 27 C0.67 26.01 0.34 25.02 0 24 C-0.50789063 24.28875 -1.01578125 24.5775 -1.5390625 24.875 C-5.78770584 27.16640315 -9.05978076 28.8782612 -14 28 C-16.69990662 26.20006226 -18.5418865 24.916227 -20 22 C-20.65495555 16.72814469 -20.41871671 12.20408715 -17.390625 7.640625 C-12.38714451 1.7376424 -7.78783434 -1.25610231 0 0 Z " fill="#F7F7F7" transform="translate(96,28)"/>
<path d="M0 0 C2 0.125 2 0.125 4 1 C5.7775248 3.84996736 6.24289482 5.99736276 6.1953125 9.328125 C6.18564453 10.52695312 6.18564453 10.52695312 6.17578125 11.75 C6.15902344 12.575 6.14226562 13.4 6.125 14.25 C6.11146484 15.51070312 6.11146484 15.51070312 6.09765625 16.796875 C6.07415817 18.86470604 6.03828908 20.93238995 6 23 C6.66386719 22.4946875 7.32773438 21.989375 8.01171875 21.46875 C8.89472656 20.8190625 9.77773437 20.169375 10.6875 19.5 C11.55761719 18.8503125 12.42773438 18.200625 13.32421875 17.53125 C16.2094074 15.88016394 17.73956555 15.67101923 21 16 C21.33 17.65 21.66 19.3 22 21 C21.50628906 21.40992187 21.01257813 21.81984375 20.50390625 22.2421875 C19.86324219 22.78101562 19.22257812 23.31984375 18.5625 23.875 C17.92441406 24.40867187 17.28632813 24.94234375 16.62890625 25.4921875 C14.89194996 26.9222757 14.89194996 26.9222757 14 29 C14.70125 29.2475 15.4025 29.495 16.125 29.75 C20.24991314 31.5434405 23.8156188 33.8156188 27 37 C26.44444444 41.55555556 26.44444444 41.55555556 25 43 C18.40770012 43.13733958 15.38495831 40.14364153 10.72265625 35.71484375 C10.15417969 35.14894531 9.58570312 34.58304688 9 34 C8.195625 35.7015625 8.195625 35.7015625 7.375 37.4375 C5.63257149 40.54629332 5.37723731 40.89118154 1.75 41.9375 C0.8425 41.958125 -0.065 41.97875 -1 42 C-6.95981875 34.79855234 -3.84292761 22.11156565 -3.125 13.4375 C-3.04636719 12.35919922 -2.96773438 11.28089844 -2.88671875 10.16992188 C-2.80292969 9.14318359 -2.71914062 8.11644531 -2.6328125 7.05859375 C-2.55949707 6.13361084 -2.48618164 5.20862793 -2.41064453 4.25561523 C-2 2 -2 2 0 0 Z " fill="#F5F5F5" transform="translate(114,15)"/>
<path d="M0 0 C4.68977438 2.62627365 4.68977438 2.62627365 6.125 5.75 C6.92976457 11.78573427 5.89117163 14.98506723 2.51171875 19.98828125 C0.1726914 22.95983431 -1.21969602 24.53156534 -4.875 25.75 C-11.42697518 26.39895754 -16.18720273 25.63495146 -21.5078125 21.47265625 C-23.90243024 18.4554379 -23.39598973 15.25563027 -23.29296875 11.546875 C-22.4898438 6.17269311 -19.6151438 3.24845717 -15.625 -0.1875 C-10.43680115 -2.19203138 -5.18268495 -1.99840818 0 0 Z " fill="#F8F8F8" transform="translate(323.875,32.25)"/>
<path d="M0 0 C4.46541218 1.61182466 8.89497633 3.5268247 11 8 C11.5 10.9375 11.5 10.9375 11 14 C7.36052306 19.0042808 3.80884441 19.91699511 -2 21 C0.64 21.99 3.28 22.98 6 24 C6.1875 26.375 6.1875 26.375 6 29 C1.53471871 31.9768542 -2.76422782 31.49133346 -8 31 C-12.32458374 29.2881856 -13.9397517 27.09754118 -16 23 C-16.8086749 17.17899782 -16.84476646 11.78339586 -14.3125 6.4375 C-9.61785963 1.48909529 -7.1197028 -0.96538343 0 0 Z " fill="#F8F8F8" transform="translate(162,26)"/>
<path d="M0 0 C3.125 1.5625 3.125 1.5625 5 4 C4.8125 7.75 4.8125 7.75 4 11 C-1.445 10.505 -1.445 10.505 -7 10 C-7 10.66 -7 11.32 -7 12 C-6.29875 12.2475 -5.5975 12.495 -4.875 12.75 C-0.12429407 14.81552432 4.51200135 17.30044699 7 22 C7.5 24.9375 7.5 24.9375 7 28 C3.30119165 32.6499305 -0.10733994 34.63072425 -5.9375 35.375 C-9.92634301 34.88657024 -11.96832883 33.60864728 -15 31 C-16 28.375 -16 28.375 -16 26 C-13.60236815 23.60236815 -12.66726502 23.65719414 -9.375 23.375 C-8.55773437 23.30023438 -7.74046875 23.22546875 -6.8984375 23.1484375 C-6.27195312 23.09945312 -5.64546875 23.05046875 -5 23 C-5.68707031 22.68546875 -6.37414062 22.3709375 -7.08203125 22.046875 C-7.98308594 21.61890625 -8.88414062 21.1909375 -9.8125 20.75 C-10.70582031 20.33234375 -11.59914063 19.9146875 -12.51953125 19.484375 C-15.16128097 17.9034854 -16.47095278 16.65678304 -18 14 C-18 9.57166908 -17.50138731 7.59374813 -14.625 4.1875 C-9.59195932 -0.00670057 -6.40867801 -0.88511462 0 0 Z " fill="#F6F6F6" transform="translate(415,25)"/>
<path d="M0 0 C1.99954746 -0.04254356 4.00041636 -0.04080783 6 0 C7.91193815 1.91193815 7.35622543 5.32300146 7.5 7.875 C7.83397295 13.61026379 8.29055913 19.31079848 8.9140625 25.0234375 C8.94242187 25.67570312 8.97078125 26.32796875 9 27 C8 28 8 28 5.6875 28.125 C3 28 3 28 0.875 27.375 C0.25625 27.25125 -0.3625 27.1275 -1 27 C-1.99 27.66 -2.98 28.32 -4 29 C-7.08714084 29.60124091 -9.91712977 29.63820822 -13 29 C-15.79760068 26.85911309 -17.42839452 24.14321095 -19 21 C-19.99566474 7.13728324 -19.99566474 7.13728324 -16 2 C-13.875 1.0625 -13.875 1.0625 -12 1 C-9.85531351 3.14468649 -10.2604212 7.58444894 -9.9375 10.5625 C-9.84662109 11.36880859 -9.75574219 12.17511719 -9.66210938 13.00585938 C-9.43752551 15.00347377 -9.21826764 17.0016856 -9 19 C-8.01 19 -7.02 19 -6 19 C-5.81824219 18.38253906 -5.63648438 17.76507813 -5.44921875 17.12890625 C-3.74279553 11.37957263 -1.93345274 5.67694634 0 0 Z " fill="#F8F8F8" transform="translate(353,28)"/>
<path d="M0 0 C1.9375 0.8125 1.9375 0.8125 4 2 C4.33 2.99 4.66 3.98 5 5 C5.99 4.67 6.98 4.34 8 4 C14.14691816 3.54467273 17.02558621 4.74354816 21.8125 8.375 C23.46721299 10.6393441 23.28772081 12.26665231 23 15 C22 16 22 16 19.1875 16.125 C16.57164058 16.02241728 14.4806638 15.76328117 12 15 C10.62209096 18.58256351 9.86417477 21.82264094 9.5625 25.625 C9.28608246 28.35692671 8.98140128 30.04013408 7.8125 32.5625 C6 34 6 34 3 34.5 C0 34 0 34 -1.66259766 32.35571289 C-3.37254874 29.3437892 -3.38772453 27.26301645 -3.3984375 23.80859375 C-3.40230469 22.61685547 -3.40617187 21.42511719 -3.41015625 20.19726562 C-3.39855469 18.95654297 -3.38695312 17.71582031 -3.375 16.4375 C-3.39240234 14.57061523 -3.39240234 14.57061523 -3.41015625 12.66601562 C-3.40628906 11.47556641 -3.40242188 10.28511719 -3.3984375 9.05859375 C-3.39505371 7.96861084 -3.39166992 6.87862793 -3.38818359 5.75561523 C-2.96068698 2.72092703 -2.39775501 1.8227224 0 0 Z " fill="#F6F6F6" transform="translate(370,25)"/>
<path d="M0 0 C1.67542976 0.28604898 3.34385343 0.61781233 5 1 C5.33 3.97 5.66 6.94 6 10 C7.11375 10.12375 8.2275 10.2475 9.375 10.375 C13 11 13 11 15 13 C15.3125 15.5 15.3125 15.5 15 18 C11.5647952 20.29013653 10.014669 20.17842973 6 20 C6.33 22.64 6.66 25.28 7 28 C8.27875 28.12375 9.5575 28.2475 10.875 28.375 C14.75 28.75 14.75 28.75 17 31 C16.875 33.5 16.875 33.5 16 36 C13.10409211 38.43256263 9.65617868 38.41654842 5.96484375 38.3203125 C2.79694567 37.80387583 1.16045065 36.28753598 -1 34 C-3.20403175 30.57150617 -3.21247227 27.77372455 -3.125 23.75 C-3.10695312 22.67234375 -3.08890625 21.5946875 -3.0703125 20.484375 C-3.04710937 19.66453125 -3.02390625 18.8446875 -3 18 C-4.32 17.34 -5.64 16.68 -7 16 C-6.6875 13.625 -6.6875 13.625 -6 11 C-5.01 10.34 -4.02 9.68 -3 9 C-2.24589136 7.07834506 -2.24589136 7.07834506 -1.875 4.9375 C-1.07972665 1.07972665 -1.07972665 1.07972665 0 0 Z " fill="#F6F6F6" transform="translate(220,19)"/>
<path d="M0 0 C3 0.5625 3 0.5625 4.66796875 2.4453125 C6.60235051 6.97210618 6.40238693 11.12920054 6.3125 16 C6.3026709 16.97686768 6.2928418 17.95373535 6.28271484 18.96020508 C5.9352009 38.65969865 5.9352009 38.65969865 2 44.5625 C-0.4375 45 -0.4375 45 -3 44.5625 C-5.68575764 42.06680643 -6.00075355 40.55532657 -6.38818359 36.8671875 C-6.40791674 35.39075291 -6.41032519 33.9140186 -6.3984375 32.4375 C-6.40130768 31.65358887 -6.40417786 30.86967773 -6.40713501 30.06201172 C-6.40917264 28.40787024 -6.40366381 26.7537045 -6.39111328 25.09960938 C-6.3750544 22.57106529 -6.39097117 20.04411951 -6.41015625 17.515625 C-6.40817376 15.90624648 -6.40432997 14.29686895 -6.3984375 12.6875 C-6.40451019 11.9332373 -6.41058289 11.17897461 -6.4168396 10.40185547 C-6.37425796 7.21589651 -6.19160619 4.9167511 -4.66259766 2.08984375 C-3 0.5625 -3 0.5625 0 0 Z " fill="#F8F8F8" transform="translate(202,14.4375)"/>
<path d="M0 0 C1.65 0.33 3.3 0.66 5 1 C5.6875 2.75 5.6875 2.75 6 5 C4.9375 7.25 4.9375 7.25 3 9 C-0.1875 9.25 -0.1875 9.25 -3 9 C-3.75 7.3125 -3.75 7.3125 -4 5 C-2.0625 2.25 -2.0625 2.25 0 0 Z " fill="#0F0F0F" transform="translate(314,39)"/>
<path d="M0 0 C-0.4690449 4.12759513 -0.93951662 7.05286786 -4 10 C-5.32 10 -6.64 10 -8 10 C-7.61508669 5.50934475 -5.14531178 0 0 0 Z " fill="#181818" transform="translate(93,36)"/>
<path d="M0 0 C2.375 -0.1875 2.375 -0.1875 5 0 C5.66 0.99 6.32 1.98 7 3 C2.545 3.495 2.545 3.495 -2 4 C-1.34 2.68 -0.68 1.36 0 0 Z " fill="#1D1D1D" transform="translate(158,34)"/>
</svg>
